<?xml version="1.0" standalone="no"?>
<!DOCTYPE svg PUBLIC "-//W3C//DTD SVG 20010904//EN"
 "http://www.w3.org/TR/2001/REC-SVG-20010904/DTD/svg10.dtd">
<svg version="1.0" xmlns="http://www.w3.org/2000/svg"
 width="141.000000pt" height="141.000000pt" viewBox="0 0 141.000000 141.000000"
 preserveAspectRatio="xMidYMid meet">
<metadata>
Created by potrace 1.10, written by Peter Selinger 2001-2011
</metadata>
<g transform="translate(0.000000,141.000000) scale(0.100000,-0.100000)"
fill="#000000" stroke="none">
<path d="M684 1240 c-5 -4 -101 -55 -214 -112 -113 -58 -234 -122 -270 -144
l-64 -39 -25 -122 -25 -122 23 -119 c12 -65 26 -123 29 -129 4 -6 70 -43 147
-84 77 -40 142 -75 145 -78 11 -13 257 -131 273 -131 20 0 235 106 422 209 71
39 132 72 136 73 3 2 17 60 31 130 l25 127 -27 123 -26 123 -76 45 c-41 25
-138 77 -214 115 -76 39 -141 72 -144 75 -17 17 -139 67 -146 60z m63 -117
c22 -49 105 -223 183 -388 l143 -299 -39 -34 c-21 -19 -61 -53 -89 -76 l-50
-42 -197 2 -197 1 -78 68 c-43 38 -79 70 -81 70 -3 2 132 301 210 465 30 63
74 161 99 217 24 56 46 103 49 103 3 0 24 -39 47 -87z m-87 64 c0 -2 -9 -22
-21 -46 -52 -108 -188 -401 -251 -541 -38 -85 -70 -155 -71 -156 -1 -1 -36 6
-77 15 l-75 18 -23 109 -23 109 22 110 c12 61 26 115 31 122 6 7 110 65 231
128 122 64 226 121 232 126 9 9 25 13 25 6z m340 -132 c124 -65 228 -122 231
-128 4 -5 17 -61 29 -124 22 -111 22 -115 6 -199 -26 -131 -23 -127 -100 -139
-47 -8 -69 -8 -75 -1 -4 6 -52 106 -106 221 -54 116 -129 272 -167 347 -68
137 -80 170 -55 150 6 -5 113 -63 237 -127z m180 -621 c0 -3 -16 -12 -36 -20
-20 -8 -54 -27 -75 -41 -22 -14 -42 -24 -45 -21 -7 8 77 75 101 81 29 7 55 8
55 1z m-840 -38 c14 -11 27 -22 29 -23 2 -2 2 -5 -1 -8 -5 -5 -118 53 -118 62
0 11 67 -11 90 -31z m500 -140 c0 -2 -30 -18 -67 -36 l-68 -31 -60 27 c-33 16
-64 32 -69 36 -6 4 52 8 127 8 75 0 137 -2 137 -4z"/>
</g>
</svg>
