<?xml version="1.0" standalone="no"?>
<!DOCTYPE svg PUBLIC "-//W3C//DTD SVG 20010904//EN"
 "http://www.w3.org/TR/2001/REC-SVG-20010904/DTD/svg10.dtd">
<svg version="1.0" xmlns="http://www.w3.org/2000/svg"
 width="141.000000pt" height="141.000000pt" viewBox="0 0 141.000000 141.000000"
 preserveAspectRatio="xMidYMid meet">
<metadata>
Created by potrace 1.10, written by Peter Selinger 2001-2011
</metadata>
<g transform="translate(0.000000,141.000000) scale(0.100000,-0.100000)"
fill="#000000" stroke="none">
<path d="M670 1308 c-14 -5 -92 -31 -175 -57 l-149 -47 -113 -153 -113 -153 0
-197 0 -197 113 -149 112 -149 160 -53 c88 -29 169 -58 180 -63 16 -9 31 -7
65 8 25 10 107 38 183 62 l137 44 110 147 109 147 1 201 2 201 -48 68 c-27 37
-77 104 -111 148 l-63 82 -181 61 c-99 33 -184 61 -187 60 -4 0 -18 -5 -32
-11z m30 -97 l0 -70 -177 -127 c-98 -70 -188 -136 -200 -147 -22 -20 -24 -20
-85 -2 -35 10 -67 21 -71 25 -4 4 35 65 88 136 53 71 100 134 103 140 4 6 70
31 147 54 77 24 147 47 155 51 34 19 40 10 40 -60z m192 14 l163 -56 98 -133
c53 -74 97 -136 97 -139 0 -3 -31 -16 -68 -28 l-68 -22 -150 110 c-82 60 -170
124 -196 142 l-48 32 0 74 c0 41 2 75 4 75 3 0 78 -25 168 -55z m16 -262 c103
-75 186 -138 185 -142 0 -3 -34 -106 -73 -228 l-72 -223 -244 0 -243 0 -6 23
c-4 12 -36 116 -73 230 -55 175 -64 210 -52 217 8 5 96 67 194 139 99 71 183
128 188 125 5 -3 93 -66 196 -141z m352 -270 l0 -178 -96 -130 c-53 -71 -100
-130 -104 -130 -4 0 -25 24 -47 52 l-39 53 75 229 75 230 65 24 c36 14 67 26
69 26 1 1 2 -79 2 -176z m-1035 149 l60 -18 77 -233 77 -234 -35 -45 c-19 -25
-34 -49 -34 -53 0 -26 -28 5 -119 128 l-101 137 0 168 c0 92 3 168 8 168 4 0
34 -8 67 -18z m772 -557 c23 -30 39 -56 35 -58 -4 -2 -79 -27 -168 -55 l-161
-52 -149 50 c-82 28 -155 52 -162 55 -9 3 0 22 29 60 l41 55 247 -1 246 0 42
-54z"/>
</g>
</svg>
