<?xml version="1.0" standalone="no"?>
<!DOCTYPE svg PUBLIC "-//W3C//DTD SVG 20010904//EN"
 "http://www.w3.org/TR/2001/REC-SVG-20010904/DTD/svg10.dtd">
<svg version="1.0" xmlns="http://www.w3.org/2000/svg"
 width="141.000000pt" height="141.000000pt" viewBox="0 0 141.000000 141.000000"
 preserveAspectRatio="xMidYMid meet">
<metadata>
Created by potrace 1.10, written by Peter Selinger 2001-2011
</metadata>
<g transform="translate(0.000000,141.000000) scale(0.050000,-0.050000)"
fill="#000000" stroke="none">
<path d="M1250 2727 c-88 -50 -187 -106 -220 -123 -119 -61 -662 -371 -755
-430 l-95 -61 5 -710 5 -710 120 -69 c66 -37 246 -142 400 -233 733 -432 685
-415 882 -310 87 46 167 91 178 99 11 9 83 50 160 90 77 41 152 84 167 96 49
40 412 252 488 285 l75 33 0 717 0 716 -145 88 c-149 91 -576 331 -735 414
-49 26 -103 58 -120 72 -33 26 -223 129 -240 129 -6 0 -83 -42 -170 -93z m261
-82 c43 -52 194 -223 334 -379 140 -157 255 -287 255 -290 0 -3 -306 -6 -680
-6 -374 0 -680 6 -680 13 0 6 15 24 33 40 41 33 494 538 577 642 74 93 66 94
161 -20z m-351 -63 c0 -9 -15 -29 -33 -45 -32 -26 -310 -330 -443 -484 l-66
-77 -149 66 c-130 57 -185 98 -133 98 18 0 533 294 694 396 105 66 130 75 130
46z m757 -109 c117 -70 301 -176 408 -235 232 -129 229 -115 50 -195 l-145
-65 -70 78 c-38 42 -151 166 -250 276 -293 323 -293 320 7 141z m-1492 -511
l153 -68 -31 -72 c-17 -40 -84 -229 -149 -421 -65 -192 -126 -357 -136 -367
-12 -12 -18 178 -15 494 1 281 8 510 14 507 6 -3 80 -36 164 -73z m2175 -436
c0 -295 -7 -506 -18 -495 -9 10 -51 123 -92 249 -42 127 -106 310 -143 407
-37 97 -67 184 -67 194 0 16 266 153 305 157 8 1 15 -229 15 -512z m-492 299
c-67 -101 -531 -913 -600 -1050 -60 -118 -108 -171 -108 -118 0 10 -153 285
-340 612 -187 327 -340 598 -340 603 0 4 321 8 712 8 l713 0 -37 -55z m-1128
-609 c378 -666 366 -641 276 -615 -36 10 -133 28 -216 38 -591 77 -767 101
-773 107 -3 4 16 65 43 135 97 254 285 790 299 854 21 99 19 103 371 -519z
m1240 564 c0 -11 81 -247 179 -524 99 -277 177 -507 173 -511 -4 -3 -213 -33
-464 -67 -252 -33 -487 -68 -523 -77 -87 -24 -84 -8 32 186 135 226 518 901
546 962 23 51 57 69 57 31z m-1477 -1198 c125 -21 319 -49 432 -62 l205 -24 0
-198 c0 -197 -15 -234 -71 -179 -22 21 -548 324 -715 412 -188 98 -170 104
149 51z m1637 29 c0 -4 -70 -46 -155 -93 -300 -164 -675 -382 -710 -413 -19
-17 -36 -28 -37 -23 -1 4 -3 99 -5 210 l-3 202 270 35 c149 20 333 47 410 61
151 28 230 35 230 21z"/>
</g>
</svg>
