<?xml version="1.0" standalone="no"?>
<!DOCTYPE svg PUBLIC "-//W3C//DTD SVG 20010904//EN"
 "http://www.w3.org/TR/2001/REC-SVG-20010904/DTD/svg10.dtd">
<svg version="1.0" xmlns="http://www.w3.org/2000/svg"
 width="141.000000pt" height="141.000000pt" viewBox="0 0 141.000000 141.000000"
 preserveAspectRatio="xMidYMid meet">
<metadata>
Created by potrace 1.10, written by Peter Selinger 2001-2011
</metadata>
<g transform="translate(0.000000,141.000000) scale(0.100000,-0.100000)"
fill="#000000" stroke="none">
<path d="M211 1206 c-8 -10 -10 -148 -9 -502 l3 -489 486 -3 c403 -2 488 0
498 12 8 10 10 148 9 502 l-3 489 -486 3 c-403 2 -488 0 -498 -12z m947 -487
l-3 -460 -450 0 c-247 1 -453 1 -457 1 -5 0 -8 207 -8 460 l0 460 460 0 460 0
-2 -461z"/>
</g>
</svg>
