<?xml version="1.0" standalone="no"?>
<!DOCTYPE svg PUBLIC "-//W3C//DTD SVG 20010904//EN"
 "http://www.w3.org/TR/2001/REC-SVG-20010904/DTD/svg10.dtd">
<svg version="1.0" xmlns="http://www.w3.org/2000/svg"
 width="141.000000pt" height="141.000000pt" viewBox="0 0 141.000000 141.000000"
 preserveAspectRatio="xMidYMid meet">
<metadata>
Created by potrace 1.10, written by Peter Selinger 2001-2011
</metadata>
<g transform="translate(0.000000,141.000000) scale(0.050000,-0.050000)"
fill="#000000" stroke="none">
<path d="M1230 2538 c-88 -56 -196 -119 -240 -140 -44 -21 -201 -113 -350
-204 l-270 -164 0 -606 0 -606 417 -244 c229 -134 440 -259 470 -278 159 -103
140 -104 325 7 92 56 208 123 258 150 49 27 209 118 355 202 l266 153 -6 620
-5 621 -180 106 c-99 59 -198 115 -220 124 -22 9 -170 94 -329 189 -339 202
-291 195 -491 70z m252 -63 c49 -97 473 -833 743 -1291 99 -168 175 -310 169
-316 -14 -14 -1933 -16 -1947 -2 -5 6 120 234 278 507 158 273 363 632 454
797 252 456 235 439 303 305z m-208 -10 c-5 -8 -108 -186 -229 -395 -121 -209
-303 -528 -405 -710 -101 -181 -188 -334 -192 -339 -5 -4 -6 211 -3 479 l5
487 400 244 c382 234 443 268 424 234z m743 -253 c202 -120 371 -229 375 -241
5 -12 6 -229 3 -481 l-5 -460 -79 140 c-129 230 -694 1197 -724 1239 -15 22
-27 47 -27 56 0 19 -7 23 457 -253z m103 -1515 c-152 -84 -575 -328 -652 -377
-41 -25 -342 131 -818 423 -59 36 -44 36 780 36 l840 0 -150 -82z"/>
</g>
</svg>
